<svg xmlns="http://www.w3.org/2000/svg" width="1589.333" height="1589.333" version="1.0" viewBox="0 0 1192 1192"><path d="M568.5.6c-2.7.2-11.7.8-20 1.4-94.6 7-189.4 38.6-271.7 90.7-54.4 34.4-105.6 80.5-147 132.1C63.2 308 19.6 409.9 5.6 515 1.5 546.3.5 560.8.5 596s1 49.7 5.1 81c14 105.1 57.6 207 124.2 290.2 41.4 51.6 92.6 97.7 147 132.1 72.8 46.1 154.5 75.9 238.2 87.1 31.3 4.1 45.8 5.1 81 5.1s49.7-1 81-5.1c83.7-11.2 165.4-41 238.2-87.1 54.4-34.4 105.6-80.5 147-132.1 66.6-83.2 110.2-185.1 124.2-290.2 4.1-31.3 5.1-45.8 5.1-81s-1-49.7-5.1-81c-14-105.1-57.6-207-124.2-290.2-28.1-35.1-62-68.8-97.1-96.7C892.6 70.5 804.5 29.8 713 11.6 675.5 4.1 644.7 1 603.5.6c-16.5-.2-32.2-.2-35 0zm70 195.9c44.3 4.7 85.1 15.8 125.3 34.2l12.2 5.6V597h-76V283.3l-12.2-3.6c-50.3-15-109.9-16.8-162.8-5-25.8 5.7-60.9 19-84.5 32C344.7 359.4 282.3 454.4 272 563c-1.5 14.9-1.4 47.5 0 61.5 6.5 63.2 30.8 123.3 69.9 172.4L350 807l-.2 49.7-.3 49.6-7-5.8C257.4 829 206.9 730.5 198.9 620c-1.3-17.8-.7-53.4 1.1-68.5 7.9-66.7 29.1-125.5 64.7-179.1 45.9-69.3 114.4-123.8 191.9-152.8C493 206 528.9 198.1 569 195c15.1-1.1 51.9-.4 69.5 1.5zM852 289.9c26 21.4 55 53.6 73.7 81.6 47.2 70.9 70.3 150.4 68 234.5-.6 22.7-1.4 31.7-4.8 52-9.5 57.7-29.8 109.6-61.5 157.5-38.3 57.7-92.3 105.4-154.9 136.8-60.1 30.1-129.4 44.6-195.8 40.9-56-3.2-101.4-14.2-148.4-36l-12.3-5.7V591h76v313.8l6.8 2c32.1 9.7 62.3 14.1 95.2 14.2 36.9 0 67.3-4.7 101-15.6C814.6 866.8 901.5 763.3 918.4 639c7.7-56.2 0-116.3-21.6-168.5-11.1-26.7-29.2-57.5-46.8-79.4l-8-9.9v-49.7c0-47.2.1-49.7 1.8-48.4.9.8 4.6 3.8 8.2 6.8zM634 594v155h-76V439h76v155z"/></svg>